<svg xmlns="http://www.w3.org/2000/svg" width="18.399" height="18.399" viewBox="0 0 18.399 18.399">
  <path id="Icon_awesome-file-import" data-name="Icon awesome-file-import" d="M.575,10.35A.577.577,0,0,0,0,10.925v1.15a.577.577,0,0,0,.575.575H4.6v-2.3ZM18.148,3.773,14.63.252A.862.862,0,0,0,14.019,0H13.8V4.6h4.6V4.381A.86.86,0,0,0,18.148,3.773Zm-5.5,1.114V0H5.462A.86.86,0,0,0,4.6.862V10.35H9.2V8.007a.576.576,0,0,1,.985-.406l3.436,3.468a.612.612,0,0,1,0,.862L10.181,15.4a.576.576,0,0,1-.985-.406V12.65H4.6v4.887a.86.86,0,0,0,.862.862H17.537a.86.86,0,0,0,.862-.862V5.75H13.512A.865.865,0,0,1,12.65,4.887Z" fill="#04041c"/>
</svg>
