<svg xmlns="http://www.w3.org/2000/svg" xmlns:xlink="http://www.w3.org/1999/xlink" width="487" height="160" viewBox="0 0 487 160"><defs><style>.a{fill:#f1f8ff;}.b{fill:#f3f3f3;}.c{fill:#e0f1e9;}.d{fill:#e5e4f1;}.e{fill:#fff;stroke:#efefef;}.f{fill:#d0e6dc;}.g{fill:#dedeec;}.h{stroke:none;}.i{fill:none;}.j{filter:url(#c);}.k{filter:url(#a);}</style><filter id="a" x="111" y="0" width="231" height="108" filterUnits="userSpaceOnUse"><feOffset dy="3" input="SourceAlpha"/><feGaussianBlur stdDeviation="3" result="b"/><feFlood flood-color="#bcbcbc" flood-opacity="0.2"/><feComposite operator="in" in2="b"/><feComposite in="SourceGraphic"/></filter><filter id="c" x="143" y="30" width="231" height="108" filterUnits="userSpaceOnUse"><feOffset dy="3" input="SourceAlpha"/><feGaussianBlur stdDeviation="3" result="d"/><feFlood flood-color="#bcbcbc" flood-opacity="0.2"/><feComposite operator="in" in2="d"/><feComposite in="SourceGraphic"/></filter></defs><g transform="translate(-613 -282)"><ellipse class="a" cx="243.5" cy="7" rx="243.5" ry="7" transform="translate(613 428)"/><g transform="translate(0 -54)"><g class="k" transform="matrix(1, 0, 0, 1, 613, 336)"><rect class="b" width="213" height="90" rx="4" transform="translate(120 6)"/></g><g transform="translate(4 2)"><rect class="c" width="89" height="8" rx="4" transform="translate(741 352)"/><rect class="d" width="151" height="8" rx="4" transform="translate(741 368)"/></g><g class="j" transform="matrix(1, 0, 0, 1, 613, 336)"><g class="e" transform="translate(152 36)"><rect class="h" width="213" height="90" rx="4"/><rect class="i" x="0.5" y="0.5" width="212" height="89" rx="3.5"/></g></g><g transform="translate(-1)"><rect class="f" width="89" height="8" rx="4" transform="translate(778 384)"/><rect class="g" width="151" height="8" rx="4" transform="translate(778 400)"/></g></g></g></svg>