<svg id="bars" xmlns="http://www.w3.org/2000/svg" width="98.636" height="82.809" viewBox="0 0 98.636 82.809">
  <g id="Group_3114" data-name="Group 3114" transform="translate(68.48)">
    <g id="Group_3113" data-name="Group 3113">
      <path id="Path_602" data-name="Path 602" d="M307.891,34.019a13.538,13.538,0,0,0,0,27.076A13.6,13.6,0,0,0,321.476,47.51,13.462,13.462,0,0,0,307.891,34.019Zm0,24.1A10.561,10.561,0,1,1,318.5,47.6,10.6,10.6,0,0,1,307.891,58.117Z" transform="translate(-294.4 -34.019)" fill="#343379"/>
    </g>
  </g>
  <g id="Group_3116" data-name="Group 3116" transform="translate(77.599 4.745)">
    <g id="Group_3115" data-name="Group 3115">
      <path id="Path_603" data-name="Path 603" d="M342.253,65.305a2.438,2.438,0,0,0-.279-.744,2.332,2.332,0,0,0-.372-.651c-.186-.186-.279-.372-.465-.558a1.669,1.669,0,0,0-.651-.465,2.332,2.332,0,0,0-.651-.372c-.279-.093-.465-.279-.744-.372a6.414,6.414,0,0,1-.744-.279.706.706,0,0,1-.372-.186c-.093-.093-.279-.093-.372-.186s-.279-.093-.372-.186l-.279-.279a.483.483,0,0,1-.186-.372.56.56,0,0,1-.093-.372v-.465c0-.093.093-.279.093-.372.093-.093.093-.279.186-.372l.279-.279a.711.711,0,0,1,.465-.186.839.839,0,0,1,.465-.093h.558a.839.839,0,0,1,.465.093,4.031,4.031,0,0,1,.465.093c.093,0,.279.093.372.093.186,0,.279.093.372.093l.465.186.093-.558.186-1.489v-.372l-.372-.093c-.093,0-.279-.093-.372-.093s-.186-.093-.372-.093a4.035,4.035,0,0,0-.465-.093c-.186,0-.279-.093-.465-.093H339V54.419h-2.233V56.28h-.093a3.306,3.306,0,0,0-.838.372,1.668,1.668,0,0,0-.651.465,4.044,4.044,0,0,0-.558.651,1.87,1.87,0,0,0-.372.744l-.279.837a3.162,3.162,0,0,0-.093.93,2.047,2.047,0,0,0,.093.744,2.43,2.43,0,0,0,.279.744c.093.186.279.465.372.651.186.186.279.372.465.558a1.669,1.669,0,0,0,.651.465,2.331,2.331,0,0,0,.651.372,5.515,5.515,0,0,1,.744.372,6.419,6.419,0,0,1,.744.279.706.706,0,0,1,.372.186c.093.093.279.093.372.186s.186.186.279.186l.279.279c.093.093.093.186.186.372a4.025,4.025,0,0,1,.093.465v.465a.706.706,0,0,1-.186.372l-.279.279a1.284,1.284,0,0,1-.372.279c-.093.093-.279.093-.372.186a4.04,4.04,0,0,1-.465.093h-1.21a4.017,4.017,0,0,1-.465-.093,1.323,1.323,0,0,1-.558-.186c-.186-.093-.372-.093-.558-.186-.093,0-.186-.093-.279-.093s-.186-.093-.279-.093l-.558-.279-.093.651-.186,1.675v.279l.279.093a1.244,1.244,0,0,1,.837.093,1.726,1.726,0,0,0,.651.186c.186.093.465.093.744.186a2.048,2.048,0,0,0,.744.093h.186V72h2.233V70.05h.093a3.306,3.306,0,0,0,.837-.372,3.264,3.264,0,0,0,.744-.465,4.048,4.048,0,0,0,.558-.651,5.2,5.2,0,0,0,.465-.744l.279-.837a2.874,2.874,0,0,0,.093-.93A2.052,2.052,0,0,0,342.253,65.305Z" transform="translate(-333.6 -54.419)" fill="#343379"/>
    </g>
  </g>
  <g id="Group_3118" data-name="Group 3118" transform="translate(15.931 28.274)">
    <g id="Group_3117" data-name="Group 3117">
      <path id="Path_604" data-name="Path 604" d="M128.017,156.139a1.584,1.584,0,0,0-2.14-.279l-15.073,12-19.446-8.095a1.484,1.484,0,0,0-1.4.186L69.12,174.841a1.487,1.487,0,0,0-.372,2.047,1.356,1.356,0,0,0,1.21.651,1.5,1.5,0,0,0,.837-.279l20.191-14.422,19.539,8.095a1.674,1.674,0,0,0,1.489-.186l15.724-12.468A1.584,1.584,0,0,0,128.017,156.139Z" transform="translate(-68.489 -155.569)" fill="#343379"/>
    </g>
  </g>
  <g id="Group_3120" data-name="Group 3120" transform="translate(0 35.264)">
    <g id="Group_3119" data-name="Group 3119">
      <path id="Path_605" data-name="Path 605" d="M97.231,230.187H90.346V187.108a1.47,1.47,0,0,0-1.489-1.489H75.18a1.47,1.47,0,0,0-1.489,1.489v43.079H68.667V201.995a1.47,1.47,0,0,0-1.489-1.489H53.407a1.47,1.47,0,0,0-1.489,1.489v28.192H46.894V199.762a1.47,1.47,0,0,0-1.489-1.489H31.728a1.47,1.47,0,0,0-1.489,1.489v30.426H25.215V208.508a1.47,1.47,0,0,0-1.489-1.489H9.956a1.47,1.47,0,0,0-1.489,1.489v21.679H1.489a1.489,1.489,0,0,0,0,2.977H97.138a1.47,1.47,0,0,0,1.489-1.489A1.344,1.344,0,0,0,97.231,230.187Zm-75.087,0h-10.7V210h10.7Zm21.772,0h-10.7V201.25h10.7Zm21.679,0H54.9v-26.7H65.6Zm21.772,0h-10.7V188.6h10.7Z" transform="translate(0 -185.619)" fill="#343379"/>
    </g>
  </g>
</svg>
