<svg id="Group_3112" data-name="Group 3112" xmlns="http://www.w3.org/2000/svg" width="13.634" height="10.056" viewBox="0 0 13.634 10.056">
  <g id="Group_3107" data-name="Group 3107" transform="translate(0 0.021)">
    <g id="Group_3106" data-name="Group 3106">
      <path id="Path_599" data-name="Path 599" d="M96.847,75.175a.617.617,0,0,0-.873,0l-4.684,4.665-1.354-1.354a.617.617,0,0,0-.872,0l-5.491,5.491a.617.617,0,1,0,.872.872L89.5,79.793l1.353,1.353a.617.617,0,0,0,.871,0l5.12-5.1A.617.617,0,0,0,96.847,75.175Z" transform="translate(-83.393 -74.993)" fill="#089752"/>
    </g>
  </g>
  <g id="Group_3111" data-name="Group 3111" transform="translate(7.773 0)">
    <g id="Group_3110" data-name="Group 3110">
      <path id="Path_601" data-name="Path 601" d="M333,74.344h-4.627a.617.617,0,1,0,0,1.234h4.01v4.01a.617.617,0,1,0,1.234,0V74.961A.617.617,0,0,0,333,74.344Z" transform="translate(-327.758 -74.344)" fill="#089752"/>
    </g>
  </g>
</svg>
